<?xml version="1.0" standalone="no"?>
<!DOCTYPE svg PUBLIC "-//W3C//DTD SVG 20010904//EN"
 "http://www.w3.org/TR/2001/REC-SVG-20010904/DTD/svg10.dtd">
<svg version="1.0" xmlns="http://www.w3.org/2000/svg"
 width="219.000000pt" height="230.000000pt" viewBox="0 0 219.000000 230.000000"
 preserveAspectRatio="xMidYMid meet">
<metadata>
Created by potrace 1.15, written by Peter Selinger 2001-2017
</metadata>
<g transform="translate(0.000000,230.000000) scale(0.100000,-0.100000)"
fill="#000000" stroke="none">
<path d="M345 2167 c-16 -25 -208 -501 -244 -605 -40 -116 -22 -232 47 -306
62 -66 171 -92 266 -64 55 16 138 99 158 158 l15 45 13 -43 c39 -127 187 -200
324 -160 55 16 138 99 157 157 l15 44 13 -43 c17 -57 101 -141 157 -158 137
-40 285 33 324 160 l13 43 15 -45 c20 -59 103 -142 158 -158 174 -51 334 66
334 245 0 34 -7 84 -16 110 -40 122 -240 609 -256 625 -17 17 -55 18 -748 18
l-730 0 -15 -23z"/>
<path d="M542 1115 c-79 -56 -211 -81 -298 -56 l-31 9 -7 -121 c-3 -66 -6
-213 -6 -327 l0 -206 -35 -12 c-75 -28 -107 -111 -70 -182 31 -60 29 -60 534
-60 l459 0 4 363 c2 290 6 367 17 380 12 15 42 17 241 17 199 0 229 -2 241
-17 11 -13 15 -90 18 -380 l3 -363 205 0 c225 0 250 5 278 60 37 71 5 154 -70
182 l-35 12 0 206 c0 114 -3 261 -6 327 l-7 121 -36 -10 c-64 -18 -171 -5
-242 30 -35 17 -71 37 -79 43 -13 9 -24 6 -54 -14 -113 -77 -257 -89 -376 -30
-36 18 -72 38 -80 44 -13 9 -24 6 -54 -14 -110 -75 -252 -87 -373 -33 -35 16
-68 35 -74 42 -15 19 -28 17 -67 -11z m282 -211 c23 -23 23 -206 0 -225 -24
-20 -324 -20 -347 0 -26 21 -25 215 1 230 9 6 86 11 174 11 129 0 159 -3 172
-16z"/>
</g>
</svg>
